#!OML:ASF F:\VICON\USERDATA\INSTALL\rory3\rory3.ASF
:FULLY-SPECIFIED
:DEGREES
259
root -2.19453 16.774 13.5796 378.709 5.46267 366.12
lowerback -2.61087 7.37281 -7.42217
upperback -12.2849 9.74434 -1.37303
thorax -12.9525 5.49647 1.60969
lowerneck -15.2213 -10.1908 -5.84868
upperneck 28.5542 -17.2782 12.8661
head 14.0484 -6.52297 3.0709
rclavicle 1.95803e-014 2.22639e-014
rhumerus 213.528 -224.123 126.829
rradius 68.5297
rwrist -18.0905
rhand 5.93745 18.7566
rfingers 7.12502
rthumb 31.2637 -8.59431
lclavicle 1.95803e-014 2.22639e-014
lhumerus 17.8179 2.32418 31.5131
lradius 23.2096
lwrist -11.568
lhand -15.6403 27.561
lfingers 7.12502
lthumb 10.5471 57.2763
rfemur -73.461 -4.37458 82.3569
rtibia 58.6845
rfoot 55.3481 -3.24943
rtoes 14.2998
lfemur -34.8539 -28.4806 -16.4798
ltibia 31.9485
lfoot -20.8393 17.6384
ltoes 8.97758
260
root -2.23952 16.7959 13.5956 379.028 1.64947 366.774
lowerback -2.65366 7.08119 -8.73265
upperback -12.1201 9.26283 -1.51448
thorax -12.9219 5.37496 2.21615
lowerneck -14.7734 -10.9647 -6.25818
upperneck 27.5752 -18.4436 13.5702
head 13.8174 -7.07481 3.17136
rclavicle 1.20165e-013 4.29375e-014
rhumerus 214.034 -222.84 125.518
rradius 67.851
rwrist -18.4815
rhand 6.01092 18.0324
rfingers 7.12502
rthumb 31.3337 -9.30496
lclavicle 1.20165e-013 4.29375e-014
lhumerus 18.0969 2.44926 27.3194
lradius 24.1617
lwrist -10.9943
lhand -15.8321 27.2386
lfingers 7.12502
lthumb 10.3621 56.9633
rfemur -73.2199 -4.65198 82.8608
rtibia 55.6441
rfoot 55.3773 -2.17447
rtoes 13.9054
lfemur -33.9145 -25.6825 -18.0738
ltibia 31.0044
lfoot -20.9738 17.728
ltoes 7.67181
261
root -2.29522 16.8257 13.5767 379.444 -2.04117 367.746
lowerback -2.39632 6.73168 -10.4504
upperback -12.036 8.64928 -1.71721
thorax -13.2145 5.2334 2.93492
lowerneck -14.6954 -11.6829 -6.64841
upperneck 26.7204 -19.526 14.241
head 13.7213 -7.5679 3.25032
rclavicle 2.68359e-015 -6.36111e-015
rhumerus 215.487 -221.815 125.398
rradius 67.6191
rwrist -19.3931
rhand 5.61885 16.3028
rfingers 7.12502
rthumb 30.9601 -11.1063
lclavicle 2.68359e-015 -6.36111e-015
lhumerus 18.088 1.95253 22.7724
lradius 25.4801
lwrist -9.7126
lhand -16.2117 28.3118
lfingers 7.12502
lthumb 9.99596 58.0545
rfemur -73.4377 -5.87775 84.088
rtibia 52.3416
rfoot 56.3498 -0.416422
rtoes 14.7874
lfemur -33.3332 -23.4353 -19.6708
ltibia 29.7646
lfoot -20.6069 18.7162
ltoes 4.59659
262
root -2.32374 16.8191 13.5848 379.714 -4.89124 368.947
lowerback -2.4928 6.25255 -12.0287
upperback -11.6503 7.92354 -1.89543
thorax -12.8532 5.00101 3.71616
lowerneck -14.7863 -12.4273 -7.6642
upperneck 25.6321 -20.6122 15.4965
head 13.7475 -8.05433 3.62537
rclavicle -2.79292e-014 -1.59028e-015
rhumerus 216.427 -219.631 124.356
rradius 65.7268
rwrist -19.0543
rhand 6.29204 16.5208
rfingers 7.12502
rthumb 31.6016 -10.7642
lclavicle -2.79292e-014 -1.59028e-015
lhumerus 18.3511 2.78781 19.1935
lradius 26.5089
lwrist -9.57722
lhand -16.3059 29.1868
lfingers 7.12502
lthumb 9.90505 58.9338
rfemur -74.0765 -4.90718 82.8589
rtibia 49.2677
rfoot 56.9127 0.922229
rtoes 13.4169
lfemur -32.7634 -21.4535 -21.6121
ltibia 28.6167
lfoot -19.3325 19.5584
ltoes -0.548958
263
root -2.36376 16.8231 13.5657 379.888 -7.46747 369.86
lowerback -2.18956 5.35075 -13.2548
upperback -11.8664 6.54365 -2.07149
thorax -13.2428 4.4613 4.30396
lowerneck -13.1099 -12.4062 -7.71596
upperneck 24.5464 -20.8191 16.6945
head 13.1649 -8.2029 4.11943
rclavicle -2.43511e-014 4.37326e-014
rhumerus 217.16 -218.868 122.346
rradius 63.9727
rwrist -18.7554
rhand 6.28615 16.5591
rfingers 7.12502
rthumb 31.5959 -10.7271
lclavicle -2.43511e-014 4.37326e-014
lhumerus 17.6807 3.86791 14.9801
lradius 27.3554
lwrist -10.3026
lhand -16.1887 29.5504
lfingers 7.12502
lthumb 10.0181 59.2919
rfemur -74.689 -4.41975 82.1739
rtibia 45.9918
rfoot 55.3242 -1.0752
rtoes 19.2863
lfemur -32.7444 -23.8574 -21.5565
ltibia 27.5344
lfoot -20.4575 23.3645
ltoes -0.199146
264
root -2.38741 16.8323 13.5466 379.818 -9.84177 370.731
lowerback -1.50422 4.83775 -14.2221
upperback -11.7932 5.64482 -2.31588
thorax -13.5272 4.1079 4.61158
lowerneck -12.7623 -12.8761 -8.0859
upperneck 23.7454 -21.6266 17.6708
head 13.0958 -8.56724 4.37235
rclavicle -1.09332e-015 -8.74653e-015
rhumerus 218.253 -217.5 121.573
rradius 62.73
rwrist -19.1458
rhand 5.68531 14.3637
rfingers 7.12502
rthumb 31.0234 -13.0333
lclavicle -1.09332e-015 -8.74653e-015
lhumerus 16.7532 -0.421327 8.62216
lradius 30.5978
lwrist -3.81922
lhand -17.168 32.6603
lfingers 7.12502
lthumb 9.07321 62.4452
rfemur -75.3576 -4.1452 81.3322
rtibia 42.681
rfoot 55.1716 0.359396
rtoes 17.7362
lfemur -32.2435 -20.7856 -23.3966
ltibia 26.7832
lfoot -18.6665 22.4848
ltoes -4.11027
265
root -2.40004 16.8642 13.5387 379.454 -12.002 371.301
lowerback -0.463182 4.45865 -14.7495
upperback -11.8889 4.87111 -2.44839
thorax -14.2025 3.80559 4.75842
lowerneck -12.238 -13.2907 -8.28505
upperneck 23.2815 -22.3437 18.249
head 13.0386 -8.91516 4.48426
rclavicle 3.08116e-015 5.80451e-014
rhumerus 219.014 -216.243 120.941
rradius 61.3493
rwrist -19.2508
rhand 6.20908 12.7008
rfingers 7.12502
rthumb 31.5225 -14.5997
lclavicle 3.08116e-015 5.80451e-014
lhumerus 18.3726 5.07776 8.56067
lradius 28.8155
lwrist -8.16296
lhand -16.9667 30.8436
lfingers 7.12502
lthumb 9.26749 60.6199
rfemur -75.7848 -4.38954 80.6952
rtibia 39.0361
rfoot 55.0748 1.09133
rtoes 17.5679
lfemur -31.281 -16.4315 -25.3672
ltibia 25.9825
lfoot -16.5997 19.9516
ltoes -8.46164
266
root -2.40683 16.8911 13.5467 379.164 -13.9886 371.508
lowerback -0.0177069 4.15651 -14.9042
upperback -11.4777 4.39313 -2.40486
thorax -13.8882 3.55538 4.96923
lowerneck -12.9349 -13.8543 -8.53212
upperneck 22.9021 -23.2177 18.7368
head 13.2977 -9.24836 4.45043
rclavicle -1.54058e-014 -2.38542e-014
rhumerus 220.285 -213.957 120.072
rradius 58.4658
rwrist -18.2823
rhand 6.37275 12.0376
rfingers 7.12502
rthumb 31.6784 -15.2323
lclavicle -1.54058e-014 -2.38542e-014
lhumerus 19.8217 8.54352 7.7986
lradius 28.3012
lwrist -8.18051
lhand -17.4468 30.3863
lfingers 7.12502
lthumb 8.80419 60.1826
rfemur -76.1941 -4.72675 80.5234
rtibia 35.2655
rfoot 54.2905 1.8906
rtoes 16.0607
lfemur -30.5398 -15.6708 -25.6494
ltibia 25.2053
lfoot -16.6037 19.8246
ltoes -7.56755
267
root -2.41093 16.9337 13.547 378.981 -15.8577 371.44
lowerback 0.381826 3.84064 -14.8132
upperback -11.2632 3.92398 -2.19826
thorax -13.771 3.31602 5.21908
lowerneck -13.1351 -14.3271 -8.93167
upperneck 22.7056 -23.8825 18.9314
head 13.465 -9.55683 4.4054
rclavicle -5.11871e-015 1.03368e-014
rhumerus 221.594 -212.439 119.773
rradius 55.8856
rwrist -17.7421
rhand 5.34491 10.3893
rfingers 7.12502
rthumb 30.6989 -17.0692
lclavicle -5.11871e-015 1.03368e-014
lhumerus 20.3576 9.56252 6.16301
lradius 28.9642
lwrist -4.90184
lhand -18.6352 30.9059
lfingers 7.12502
lthumb 7.65723 60.7472
rfemur -77.0034 -6.00816 81.976
rtibia 32.0085
rfoot 53.94 3.81356
rtoes 16.9665
lfemur -29.8255 -14.9656 -25.4982
ltibia 24.2443
lfoot -15.8445 19.8716
ltoes -9.72564
268
root -2.40648 16.988 13.5335 378.717 -17.8608 371.438
lowerback 1.1503 3.62097 -14.9369
upperback -11.3258 3.48464 -1.92238
thorax -14.2757 3.16485 5.61454
lowerneck -12.9135 -14.6583 -9.55678
upperneck 22.8405 -24.3076 18.8877
head 13.6306 -9.81418 4.39333
rclavicle 8.58004e-014 -3.81667e-014
rhumerus 222.251 -210.854 118.235
rradius 52.5342
rwrist -16.5084
rhand 4.98329 9.20539
rfingers 7.12502
rthumb 30.354 -18.3172
lclavicle 8.58004e-014 -3.81667e-014
lhumerus 20.8225 10.9705 5.40748
lradius 29.5224
lwrist -2.4828
lhand -19.2251 31.0509
lfingers 7.12502
lthumb 7.08783 60.9122
rfemur -77.2256 -5.07167 79.4711
rtibia 29.5405
rfoot 51.8139 2.9972
rtoes 16.2164
lfemur -29.0322 -12.6408 -25.7965
ltibia 23.0114
lfoot -14.1997 18.3483
ltoes -13.3982
269
root -2.39282 17.0922 13.5735 378.831 -19.1639 370.755
lowerback 0.9652 3.24185 -13.8621
upperback -11.2495 3.13152 -1.49947
thorax -13.8705 2.88724 5.59092
lowerneck -12.3945 -14.8773 -10.0077
upperneck 22.4691 -24.5125 18.9534
head 13.4787 -10.0047 4.45685
rclavicle -1.20513e-014 -1.03368e-014
rhumerus 223.22 -209.43 117.473
rradius 49.3844
rwrist -16.1938
rhand 4.5221 8.14597
rfingers 7.12502
rthumb 29.914 -19.4568
lclavicle -1.20513e-014 -1.03368e-014
lhumerus 21.8278 13.4714 5.74693
lradius 29.4898
lwrist -1.44735
lhand -18.9445 30.7068
lfingers 7.12502
lthumb 7.35869 60.5589
rfemur -78.4526 -5.33312 78.6395
rtibia 28.2207
rfoot 49.8991 2.92267
rtoes 16.1956
lfemur -27.99 -12.2119 -24.8772
ltibia 21.3705
lfoot -13.0496 17.8019
ltoes -15.0793
270
root -2.37218 17.1956 13.6012 378.921 -20.4798 370.458
lowerback 0.78775 2.9304 -13.1787
upperback -10.9646 2.83255 -1.24821
thorax -13.2741 2.64544 5.57563
lowerneck -12.9132 -15.1451 -9.85945
upperneck 22.4079 -24.8155 18.6421
head 13.5333 -10.1258 4.20319
rclavicle 1.25359e-014 -4.6118e-014
rhumerus 224.243 -207.437 116.393
rradius 44.1679
rwrist -15.629
rhand 2.94025 8.84632
rfingers 7.12502
rthumb 28.4035 -19.0185
lclavicle 1.25359e-014 -4.6118e-014
lhumerus 23.5675 16.7806 7.00649
lradius 29.0644
lwrist -1.3984
lhand -18.6146 30.5661
lfingers 7.12502
lthumb 7.67717 60.4068
rfemur -80.1968 -5.22856 76.5764
rtibia 27.8834
rfoot 47.6331 2.41825
rtoes 16.2738
lfemur -26.8398 -12.3569 -24.2682
ltibia 19.404
lfoot -11.8169 17.8871
ltoes -15.4443
271
root -2.34559 17.2946 13.6248 378.961 -21.8128 370.052
lowerback 0.918474 2.82456 -12.5181
upperback -10.8894 2.76257 -0.832541
thorax -13.2026 2.5656 5.68935
lowerneck -12.6742 -15.3467 -10.3074
upperneck 22.3301 -24.9235 18.3538
head 13.478 -10.2641 4.14437
rclavicle -2.52705e-014 -1.27222e-014
rhumerus 225.06 -205.071 114.387
rradius 39.6478
rwrist -14.0832
rhand 1.41609 7.81018
rfingers 7.12502
rthumb 26.946 -20.2886
lclavicle -2.52705e-014 -1.27222e-014
lhumerus 25.3628 18.5391 8.74147
lradius 28.742
lwrist -0.561461
lhand -19.6512 31.3246
lfingers 7.12502
lthumb 6.67657 61.1993
rfemur -81.7603 -4.38941 72.5496
rtibia 28.1128
rfoot 44.7091 0.878377
rtoes 14.2395
lfemur -25.4233 -12.6031 -23.6903
ltibia 17.205
lfoot -9.89677 18.5549
ltoes -16.399
